<?xml version="1.0" encoding="utf-8"?>
<!-- Generator: Adobe Illustrator 28.1.0, SVG Export Plug-In . SVG Version: 6.00 Build 0)  -->
<svg version="1.1" id="Layer_1" xmlns="http://www.w3.org/2000/svg" xmlns:xlink="http://www.w3.org/1999/xlink" x="0px" y="0px"
	 viewBox="0 0 413 232" style="enable-background:new 0 0 413 232;" xml:space="preserve">
<path d="M413,146.5c0-41.1-33.4-74.5-74.5-74.5c-6.1,0-12.1,0.8-17.8,2.2C306.7,31.1,266.2,0,218.5,0c-45.7,0-84.7,28.5-100.3,68.7
	C108,64.4,96.8,62,85,62c-46.9,0-85,38.1-85,85c0,23.6,9.6,44.9,25.2,60.4c13.3,15,32.7,24.6,54.3,24.6h261
	c39.9,0,72.5-32.6,72.5-72.5v-8c0-0.8,0-1.7-0.1-2.5C413,148.2,413,147.3,413,146.5z"/>
</svg>
